# xmcd
#
# Track frame offsets: 
#        150
#        13630
#        30685
#        40580
#        54325
#        73902
#        89995
#        103755
#        124175
#        140647
#        156205
#        170130
#
# Disc length: 2503 seconds
#
# Revision: 7
# Processed by: cddbd v1.5.2PL0 Copyright (c) Steve Scherf et al.
# Submitted via: ExactAudioCopy v1.0b3
#
DISCID=ad09c50c
DTITLE=Tracy Byrd - Greatest Hits
DYEAR=2005
DGENRE=Country
TTITLE0=The Truth About Men (feat. Andy Griggs, Montgomery Gentry and Bl
TTITLE0=ake Shelton)
TTITLE1=Just Let Me Be In Love
TTITLE2=Drinkin' Bone
TTITLE3=Watermelon Crawl
TTITLE4=Keeper of the Stars
TTITLE5=A Good Way to Get On My Bad Side (Duet with Mark Chesnutt)
TTITLE6=Ten Rounds with Jose Cuervo
TTITLE7=Put Your Hand in Mine
TTITLE8=I'm from the Country (Newly Recorded Version, Previously Unrel
TTITLE8=eased)
TTITLE9=Tiny Town
TTITLE10=Johnny Cash (Previously Unreleased)
TTITLE11=Revenge of a Middle-Aged Woman (Previously Unreleased)
EXTD=
EXTT0=
EXTT1=
EXTT2=
EXTT3=
EXTT4=
EXTT5=
EXTT6=
EXTT7=
EXTT8=
EXTT9=
EXTT10=
EXTT11=
PLAYORDER=
